<mxfile host="www.draw.io" modified="2019-12-04T11:05:50.490Z" agent="Mozilla/5.0 (Windows NT 10.0; Win64; x64) AppleWebKit/537.36 (KHTML, like Gecko) Chrome/78.0.3904.108 Safari/537.36" etag="iVjNxSVBPOGvhKb5iVfu" version="12.3.6" type="github" pages="1">
  <diagram id="31b32b95-0358-9bc7-6ba0-a27c054ed1a7" name="Page-1">
    <mxGraphModel dx="292" dy="1330" grid="1" gridSize="10" guides="1" tooltips="1" connect="1" arrows="1" fold="1" page="1" pageScale="1" pageWidth="827" pageHeight="1169" background="#ffffff" math="0" shadow="0">
      <root>
        <mxCell id="0"/>
        <mxCell id="1" parent="0"/>
        <mxCell id="2" value="" style="swimlane;shadow=0;strokeColor=#4277BB;fillColor=#ffffff;fontColor=#4277BB;align=right;startSize=0;collapsible=0;strokeWidth=3;" parent="1" vertex="1">
          <mxGeometry x="247" y="140" width="1733" height="890" as="geometry"/>
        </mxCell>
        <mxCell id="N9iGH-wq7GvP8qR68Uh3-102" value="" style="rounded=1;arcSize=10;dashed=0;fillColor=none;gradientColor=none;strokeWidth=2;" parent="2" vertex="1">
          <mxGeometry x="184" y="337" width="210" height="123" as="geometry"/>
        </mxCell>
        <mxCell id="3" value="PUBLIC NETWORK" style="text;html=1;align=left;verticalAlign=top;fontColor=#4277BB;shadow=0;dashed=0;strokeColor=none;fillColor=none;labelBackgroundColor=none;fontStyle=1;fontSize=16;spacingLeft=5;" parent="2" vertex="1">
          <mxGeometry width="170" height="30" as="geometry"/>
        </mxCell>
        <mxCell id="4" value="" style="line;strokeWidth=3;direction=south;html=1;shadow=0;labelBackgroundColor=none;fillColor=none;gradientColor=none;fontSize=12;fontColor=#4277BB;align=right;strokeColor=#4277BB;" parent="2" vertex="1">
          <mxGeometry x="285" width="10" height="330" as="geometry"/>
        </mxCell>
        <mxCell id="5" value="PROVIDER CLOUD" style="text;html=1;align=left;verticalAlign=top;fontColor=#4277BB;shadow=0;dashed=0;strokeColor=none;fillColor=none;labelBackgroundColor=none;fontStyle=1;fontSize=16;spacingLeft=5;" parent="2" vertex="1">
          <mxGeometry x="291" width="180" height="35" as="geometry"/>
        </mxCell>
        <mxCell id="6" value="Application component" style="rounded=0;html=1;shadow=0;labelBackgroundColor=none;strokeColor=none;strokeWidth=2;fillColor=#EBC01A;gradientColor=none;fontSize=12;fontColor=#4277BB;align=left;labelPosition=right;verticalLabelPosition=middle;verticalAlign=middle;spacingLeft=5;" parent="2" vertex="1">
          <mxGeometry x="10" y="730" width="20" height="10" as="geometry"/>
        </mxCell>
        <mxCell id="7" value="Infrastructure services" style="rounded=0;html=1;shadow=0;labelBackgroundColor=none;strokeColor=none;strokeWidth=2;fillColor=#8DC642;gradientColor=none;fontSize=12;fontColor=#4277BB;align=left;labelPosition=right;verticalLabelPosition=middle;verticalAlign=middle;spacingLeft=5;" parent="2" vertex="1">
          <mxGeometry x="10" y="750" width="20" height="10" as="geometry"/>
        </mxCell>
        <mxCell id="8" value="Management" style="rounded=0;html=1;shadow=0;labelBackgroundColor=none;strokeColor=none;strokeWidth=2;fillColor=#0DB39D;gradientColor=none;fontSize=12;fontColor=#4277BB;align=left;labelPosition=right;verticalLabelPosition=middle;verticalAlign=middle;spacingLeft=5;" parent="2" vertex="1">
          <mxGeometry x="10" y="770" width="20" height="10" as="geometry"/>
        </mxCell>
        <mxCell id="9" value="Data store" style="rounded=0;html=1;shadow=0;labelBackgroundColor=none;strokeColor=none;strokeWidth=2;fillColor=#335D81;gradientColor=none;fontSize=12;fontColor=#4277BB;align=left;labelPosition=right;verticalLabelPosition=middle;verticalAlign=middle;spacingLeft=5;" parent="2" vertex="1">
          <mxGeometry x="10" y="790" width="20" height="10" as="geometry"/>
        </mxCell>
        <mxCell id="10" value="Analytics" style="rounded=0;html=1;shadow=0;labelBackgroundColor=none;strokeColor=none;strokeWidth=2;fillColor=#744399;gradientColor=none;fontSize=12;fontColor=#4277BB;align=left;labelPosition=right;verticalLabelPosition=middle;verticalAlign=middle;spacingLeft=5;" parent="2" vertex="1">
          <mxGeometry x="10" y="810" width="20" height="10" as="geometry"/>
        </mxCell>
        <mxCell id="11" value="Device capabilities" style="rounded=0;html=1;shadow=0;labelBackgroundColor=none;strokeColor=none;strokeWidth=2;fillColor=#A72870;gradientColor=none;fontSize=12;fontColor=#4277BB;align=left;labelPosition=right;verticalLabelPosition=middle;verticalAlign=middle;spacingLeft=5;" parent="2" vertex="1">
          <mxGeometry x="10" y="830" width="20" height="10" as="geometry"/>
        </mxCell>
        <mxCell id="12" value="Security" style="rounded=0;html=1;shadow=0;labelBackgroundColor=none;strokeColor=none;strokeWidth=2;fillColor=#E52134;gradientColor=none;fontSize=12;fontColor=#4277BB;align=left;labelPosition=right;verticalLabelPosition=middle;verticalAlign=middle;spacingLeft=5;" parent="2" vertex="1">
          <mxGeometry x="10" y="850" width="20" height="10" as="geometry"/>
        </mxCell>
        <mxCell id="13" value="LEGEND" style="text;html=1;align=left;verticalAlign=middle;fontColor=#4277BB;shadow=0;dashed=0;strokeColor=none;fillColor=none;labelBackgroundColor=none;fontStyle=1;fontSize=14;spacingLeft=0;" parent="2" vertex="1">
          <mxGeometry x="10" y="700" width="150" height="20" as="geometry"/>
        </mxCell>
        <mxCell id="14" value="Users" style="rounded=0;html=1;shadow=0;labelBackgroundColor=none;strokeColor=none;strokeWidth=2;fillColor=#C2952D;gradientColor=none;fontSize=12;fontColor=#4277BB;align=left;labelPosition=right;verticalLabelPosition=middle;verticalAlign=middle;spacingLeft=5;" parent="2" vertex="1">
          <mxGeometry x="10" y="870" width="20" height="10" as="geometry"/>
        </mxCell>
        <mxCell id="16" value="" style="line;strokeWidth=3;direction=south;html=1;shadow=0;labelBackgroundColor=none;fillColor=none;gradientColor=none;fontSize=12;fontColor=#4277BB;align=right;strokeColor=#4277BB;" parent="2" vertex="1">
          <mxGeometry x="285" y="470" width="10" height="420" as="geometry"/>
        </mxCell>
        <mxCell id="17" value="" style="swimlane;shadow=0;strokeColor=#4277BB;fillColor=#ffffff;fontColor=#4277BB;align=right;startSize=0;collapsible=0;strokeWidth=3;" parent="2" vertex="1">
          <mxGeometry x="553" y="780" width="516" height="90" as="geometry"/>
        </mxCell>
        <mxCell id="18" value="CLOUD SECURITY" style="aspect=fixed;perimeter=ellipsePerimeter;html=1;align=left;shadow=0;dashed=0;image;image=img/lib/ibm/blockchain/certificate_authority.svg;labelBackgroundColor=#ffffff;strokeColor=#666666;strokeWidth=3;fillColor=#C2952D;gradientColor=none;fontSize=12;fontColor=#4277BB;labelPosition=right;verticalLabelPosition=middle;verticalAlign=middle;" parent="17" vertex="1">
          <mxGeometry x="34" y="15" width="60" height="60" as="geometry"/>
        </mxCell>
        <mxCell id="19" style="edgeStyle=orthogonalEdgeStyle;rounded=0;comic=0;html=1;exitX=0.5;exitY=1;entryX=0;entryY=0.25;startArrow=classic;startFill=1;endArrow=classic;endFill=1;jettySize=auto;orthogonalLoop=1;strokeColor=#4378BB;strokeWidth=2;fontFamily=Helvetica;fontSize=19;fontColor=#CC99FF;endSize=4;startSize=4;exitDx=0;exitDy=0;entryDx=0;entryDy=0;" parent="2" source="22" target="N9iGH-wq7GvP8qR68Uh3-101" edge="1">
          <mxGeometry relative="1" as="geometry">
            <Array as="points">
              <mxPoint x="123" y="375"/>
            </Array>
            <mxPoint x="207.29411764705878" y="370.47058823529414" as="targetPoint"/>
          </mxGeometry>
        </mxCell>
        <mxCell id="N9iGH-wq7GvP8qR68Uh3-95" value="" style="edgeStyle=orthogonalEdgeStyle;rounded=0;orthogonalLoop=1;jettySize=auto;html=1;exitX=1;exitY=0.25;exitDx=0;exitDy=0;entryX=0;entryY=0.5;entryDx=0;entryDy=0;" parent="2" source="20" target="22" edge="1">
          <mxGeometry relative="1" as="geometry">
            <Array as="points">
              <mxPoint x="73" y="370"/>
              <mxPoint x="73" y="277"/>
            </Array>
          </mxGeometry>
        </mxCell>
        <mxCell id="20" value="USER" style="aspect=fixed;perimeter=ellipsePerimeter;html=1;align=center;shadow=0;dashed=0;image;image=img/lib/ibm/users/user.svg;labelBackgroundColor=#ffffff;strokeColor=#666666;strokeWidth=3;fillColor=#C2952D;gradientColor=none;fontSize=12;fontColor=#4277BB;" parent="2" vertex="1">
          <mxGeometry x="10" y="353" width="60" height="60" as="geometry"/>
        </mxCell>
        <mxCell id="21" style="edgeStyle=orthogonalEdgeStyle;rounded=0;html=1;labelBackgroundColor=#ffffff;startArrow=classic;startFill=1;startSize=4;endArrow=classic;endFill=1;endSize=4;jettySize=auto;orthogonalLoop=1;strokeColor=#4378BB;strokeWidth=2;fontSize=19;fontColor=#CC99FF;exitX=0.5;exitY=0;exitDx=0;exitDy=0;entryX=0;entryY=0.75;entryDx=0;entryDy=0;" parent="2" source="N9iGH-wq7GvP8qR68Uh3-96" target="N9iGH-wq7GvP8qR68Uh3-101" edge="1">
          <mxGeometry relative="1" as="geometry">
            <Array as="points">
              <mxPoint x="123" y="405"/>
            </Array>
            <mxPoint x="207.29411764705878" y="396.3529411764707" as="targetPoint"/>
          </mxGeometry>
        </mxCell>
        <mxCell id="22" value="MOBILE" style="aspect=fixed;perimeter=ellipsePerimeter;html=1;align=center;shadow=0;dashed=0;image;image=img/lib/ibm/users/device.svg;labelBackgroundColor=#ffffff;strokeColor=#666666;strokeWidth=3;fillColor=#C2952D;gradientColor=none;fontSize=12;fontColor=#4277BB;" parent="2" vertex="1">
          <mxGeometry x="93" y="247" width="60" height="60" as="geometry"/>
        </mxCell>
        <mxCell id="25" style="edgeStyle=orthogonalEdgeStyle;rounded=0;html=1;labelBackgroundColor=#ffffff;startArrow=classic;startFill=1;startSize=4;endArrow=classic;endFill=1;endSize=4;jettySize=auto;orthogonalLoop=1;strokeColor=#4378BB;strokeWidth=2;fontSize=19;fontColor=#CC99FF;exitX=1;exitY=0.5;exitDx=0;exitDy=0;" parent="2" source="N9iGH-wq7GvP8qR68Uh3-101" target="28" edge="1">
          <mxGeometry relative="1" as="geometry">
            <mxPoint x="264" y="376" as="sourcePoint"/>
          </mxGeometry>
        </mxCell>
        <mxCell id="27" style="edgeStyle=elbowEdgeStyle;rounded=0;html=1;labelBackgroundColor=#ffffff;startArrow=classic;startFill=1;startSize=4;endArrow=classic;endFill=1;endSize=4;jettySize=auto;orthogonalLoop=1;strokeColor=#4378BB;strokeWidth=2;fontSize=19;fontColor=#CC99FF;elbow=vertical;entryX=0;entryY=0.5;entryDx=0;entryDy=0;exitX=1;exitY=0.5;exitDx=0;exitDy=0;" parent="2" source="28" target="N9iGH-wq7GvP8qR68Uh3-107" edge="1">
          <mxGeometry relative="1" as="geometry">
            <mxPoint x="503" y="370" as="targetPoint"/>
            <Array as="points">
              <mxPoint x="483" y="390"/>
            </Array>
            <mxPoint x="453" y="360" as="sourcePoint"/>
          </mxGeometry>
        </mxCell>
        <mxCell id="28" value="API" style="aspect=fixed;perimeter=ellipsePerimeter;html=1;align=center;shadow=0;dashed=0;image;image=https://upload.wikimedia.org/wikipedia/commons/thumb/6/6c/Cloud-API-Logo.svg/1139px-Cloud-API-Logo.svg.png;labelBackgroundColor=#ffffff;strokeColor=#666666;strokeWidth=3;fillColor=#C2952D;gradientColor=none;fontSize=12;fontColor=#4277BB;" parent="2" vertex="1">
          <mxGeometry x="319" y="360" width="67" height="60" as="geometry"/>
        </mxCell>
        <mxCell id="29" value="" style="swimlane;shadow=0;strokeColor=#4277BB;fillColor=#ffffff;fontColor=#4277BB;align=right;startSize=0;collapsible=0;strokeWidth=3;" parent="2" vertex="1">
          <mxGeometry x="553" y="44" width="516" height="141" as="geometry"/>
        </mxCell>
        <mxCell id="30" value="COLLABORATIVE&lt;div&gt;DEVELOPMENT&lt;/div&gt;" style="aspect=fixed;perimeter=ellipsePerimeter;html=1;align=center;shadow=0;dashed=0;image;image=img/lib/ibm/devops/collaborative_development.svg;labelBackgroundColor=#ffffff;strokeColor=#666666;strokeWidth=3;fillColor=#C2952D;gradientColor=none;fontSize=12;fontColor=#4277BB;" parent="29" vertex="1">
          <mxGeometry x="34" y="32" width="60" height="60" as="geometry"/>
        </mxCell>
        <mxCell id="31" value="CONTINUOUS&lt;div&gt;DEPLOY&lt;/div&gt;" style="aspect=fixed;perimeter=ellipsePerimeter;html=1;align=center;shadow=0;dashed=0;image;image=img/lib/ibm/devops/continuous_deploy.svg;labelBackgroundColor=#ffffff;strokeColor=#666666;strokeWidth=3;fillColor=#C2952D;gradientColor=none;fontSize=12;fontColor=#4277BB;" parent="29" vertex="1">
          <mxGeometry x="162" y="32" width="60" height="60" as="geometry"/>
        </mxCell>
        <mxCell id="32" value="CONFIGURATION&lt;div&gt;MANAGEMENT&lt;/div&gt;" style="aspect=fixed;perimeter=ellipsePerimeter;html=1;align=center;shadow=0;dashed=0;image;image=img/lib/ibm/devops/configuration_management.svg;labelBackgroundColor=#ffffff;strokeColor=#666666;strokeWidth=3;fillColor=#C2952D;gradientColor=none;fontSize=12;fontColor=#4277BB;" parent="29" vertex="1">
          <mxGeometry x="289" y="32" width="60" height="60" as="geometry"/>
        </mxCell>
        <mxCell id="33" value="CONTINUOUS&lt;div&gt;TESTING&lt;/div&gt;" style="aspect=fixed;perimeter=ellipsePerimeter;html=1;align=center;shadow=0;dashed=0;image;image=img/lib/ibm/devops/continuous_testing.svg;labelBackgroundColor=#ffffff;strokeColor=#666666;strokeWidth=3;fillColor=#C2952D;gradientColor=none;fontSize=12;fontColor=#4277BB;" parent="29" vertex="1">
          <mxGeometry x="417" y="32" width="60" height="60" as="geometry"/>
        </mxCell>
        <mxCell id="34" value="DevOps" style="text;html=1;align=left;verticalAlign=top;fontColor=#4277BB;shadow=0;dashed=0;strokeColor=none;fillColor=none;labelBackgroundColor=none;fontStyle=0;fontSize=14;spacingLeft=5;" parent="29" vertex="1">
          <mxGeometry width="90" height="26" as="geometry"/>
        </mxCell>
        <mxCell id="35" value="" style="swimlane;shadow=0;strokeColor=#4277BB;fillColor=#ffffff;fontColor=#4277BB;align=right;startSize=0;collapsible=0;strokeWidth=3;" parent="2" vertex="1">
          <mxGeometry x="553" y="200" width="1117" height="380" as="geometry"/>
        </mxCell>
        <mxCell id="52" value="CLOUD RUNTIME SERVICES" style="text;html=1;align=left;verticalAlign=top;fontColor=#4277BB;shadow=0;dashed=0;strokeColor=none;fillColor=none;labelBackgroundColor=none;fontStyle=0;fontSize=14;spacingLeft=5;" parent="35" vertex="1">
          <mxGeometry x="2" width="231" height="24" as="geometry"/>
        </mxCell>
        <mxCell id="N9iGH-wq7GvP8qR68Uh3-107" value="" style="strokeColor=#dddddd;shadow=1;strokeWidth=1;rounded=1;absoluteArcSize=1;arcSize=2;" parent="35" vertex="1">
          <mxGeometry x="10" y="160" width="180" height="60" as="geometry"/>
        </mxCell>
        <mxCell id="N9iGH-wq7GvP8qR68Uh3-108" value="&lt;font color=&quot;#000000&quot;&gt;TelegramConnector&lt;/font&gt;&lt;br&gt;API connection for Bot" style="dashed=0;connectable=0;html=1;fillColor=#5184F3;strokeColor=none;shape=mxgraph.gcp2.hexIcon;prIcon=cloud_endpoints;part=1;labelPosition=right;verticalLabelPosition=middle;align=left;verticalAlign=middle;spacingLeft=5;fontColor=#999999;fontSize=12;" parent="N9iGH-wq7GvP8qR68Uh3-107" vertex="1">
          <mxGeometry y="0.5" width="44" height="39" relative="1" as="geometry">
            <mxPoint x="5" y="-19.5" as="offset"/>
          </mxGeometry>
        </mxCell>
        <mxCell id="qm9S37Klu7uk364gJ0n9-106" value="" style="group" vertex="1" connectable="0" parent="35">
          <mxGeometry x="215" y="20" width="370" height="340" as="geometry"/>
        </mxCell>
        <mxCell id="N9iGH-wq7GvP8qR68Uh3-116" value="" style="shape=mxgraph.mockup.containers.marginRect;rectMarginTop=10;strokeColor=#666666;strokeWidth=1;dashed=0;rounded=1;arcSize=5;recursiveResize=0;" parent="qm9S37Klu7uk364gJ0n9-106" vertex="1">
          <mxGeometry width="370" height="340" as="geometry"/>
        </mxCell>
        <mxCell id="N9iGH-wq7GvP8qR68Uh3-117" value="Distribution-Domain" style="shape=rect;strokeColor=none;fillColor=#008cff;strokeWidth=1;dashed=0;rounded=1;arcSize=20;fontColor=#ffffff;fontSize=17;spacing=2;spacingTop=-2;align=left;autosize=1;spacingLeft=4;resizeWidth=0;resizeHeight=0;perimeter=none;" parent="N9iGH-wq7GvP8qR68Uh3-116" vertex="1">
          <mxGeometry x="5" width="170" height="30" as="geometry"/>
        </mxCell>
        <mxCell id="qm9S37Klu7uk364gJ0n9-98" value="" style="shape=image;html=1;verticalAlign=top;verticalLabelPosition=bottom;labelBackgroundColor=#ffffff;imageAspect=0;aspect=fixed;image=https://cdn0.iconfinder.com/data/icons/zondicons/20/dots-horizontal-triple-128.png" vertex="1" parent="N9iGH-wq7GvP8qR68Uh3-116">
          <mxGeometry x="272.5" y="152.5" width="35" height="35" as="geometry"/>
        </mxCell>
        <mxCell id="qm9S37Klu7uk364gJ0n9-99" value="n Dockerinstanzen" style="text;html=1;strokeColor=none;fillColor=none;align=center;verticalAlign=middle;whiteSpace=wrap;rounded=0;" vertex="1" parent="N9iGH-wq7GvP8qR68Uh3-116">
          <mxGeometry x="152.5" y="152" width="104" height="20" as="geometry"/>
        </mxCell>
        <mxCell id="qm9S37Klu7uk364gJ0n9-90" value="" style="group" vertex="1" connectable="0" parent="N9iGH-wq7GvP8qR68Uh3-116">
          <mxGeometry x="225" y="193" width="130" height="130" as="geometry"/>
        </mxCell>
        <mxCell id="qm9S37Klu7uk364gJ0n9-91" value="" style="group" vertex="1" connectable="0" parent="qm9S37Klu7uk364gJ0n9-90">
          <mxGeometry width="130" height="130" as="geometry"/>
        </mxCell>
        <mxCell id="qm9S37Klu7uk364gJ0n9-92" value="" style="ellipse;whiteSpace=wrap;html=1;aspect=fixed;" vertex="1" parent="qm9S37Klu7uk364gJ0n9-91">
          <mxGeometry width="130" height="130" as="geometry"/>
        </mxCell>
        <mxCell id="qm9S37Klu7uk364gJ0n9-93" value="DISTRIBUTION&lt;br&gt;SERVICE" style="aspect=fixed;perimeter=ellipsePerimeter;html=1;align=center;shadow=0;dashed=0;image;image=https://live.staticflickr.com/7336/14098888813_1047e39f08.jpg;labelBackgroundColor=#ffffff;strokeColor=#666666;strokeWidth=3;fillColor=#C2952D;gradientColor=none;fontSize=12;fontColor=#4277BB;" vertex="1" parent="qm9S37Klu7uk364gJ0n9-91">
          <mxGeometry x="28.5" y="16" width="73" height="60" as="geometry"/>
        </mxCell>
        <mxCell id="qm9S37Klu7uk364gJ0n9-125" value="" style="aspect=fixed;html=1;points=[];align=center;image;fontSize=12;image=img/lib/mscae/Kubernetes.svg;" vertex="1" parent="N9iGH-wq7GvP8qR68Uh3-116">
          <mxGeometry x="5" y="36" width="50" height="48" as="geometry"/>
        </mxCell>
        <mxCell id="qm9S37Klu7uk364gJ0n9-126" value="" style="html=1;dashed=0;whitespace=wrap;fillColor=#2875E2;strokeColor=#ffffff;points=[[0.005,0.63,0],[0.1,0.2,0],[0.9,0.2,0],[0.5,0,0],[0.995,0.63,0],[0.72,0.99,0],[0.5,1,0],[0.28,0.99,0]];shape=mxgraph.kubernetes.icon;prIcon=pod" vertex="1" parent="N9iGH-wq7GvP8qR68Uh3-116">
          <mxGeometry x="225" y="21" width="112" height="112" as="geometry"/>
        </mxCell>
        <mxCell id="qm9S37Klu7uk364gJ0n9-86" value="" style="aspect=fixed;perimeter=ellipsePerimeter;html=1;align=center;shadow=0;dashed=0;image;image=https://live.staticflickr.com/7336/14098888813_1047e39f08.jpg;labelBackgroundColor=#ffffff;strokeColor=#666666;strokeWidth=3;fillColor=#C2952D;gradientColor=none;fontSize=12;fontColor=#4277BB;" vertex="1" parent="N9iGH-wq7GvP8qR68Uh3-116">
          <mxGeometry x="248" y="67" width="32" height="26" as="geometry"/>
        </mxCell>
        <mxCell id="N9iGH-wq7GvP8qR68Uh3-110" value="" style="strokeColor=#dddddd;shadow=1;strokeWidth=1;rounded=1;absoluteArcSize=1;arcSize=2;" parent="qm9S37Klu7uk364gJ0n9-106" vertex="1">
          <mxGeometry x="20" y="142" width="115" height="56" as="geometry"/>
        </mxCell>
        <mxCell id="N9iGH-wq7GvP8qR68Uh3-111" value="Distribution&lt;br&gt;Load&lt;br&gt;Balancer" style="dashed=0;connectable=0;html=1;fillColor=#757575;strokeColor=none;shape=mxgraph.gcp2.network_load_balancer;part=1;labelPosition=right;verticalLabelPosition=middle;align=left;verticalAlign=middle;spacingLeft=5;fontSize=12;" parent="N9iGH-wq7GvP8qR68Uh3-110" vertex="1">
          <mxGeometry y="0.5" width="32" height="32" relative="1" as="geometry">
            <mxPoint x="5" y="-16" as="offset"/>
          </mxGeometry>
        </mxCell>
        <mxCell id="qm9S37Klu7uk364gJ0n9-101" style="rounded=0;html=1;labelBackgroundColor=#ffffff;startArrow=classic;startFill=1;startSize=4;endArrow=classic;endFill=1;endSize=4;jettySize=auto;orthogonalLoop=1;strokeColor=#4378BB;strokeWidth=2;fontSize=19;fontColor=#CC99FF;elbow=vertical;entryX=1;entryY=0.25;entryDx=0;entryDy=0;exitX=0.005;exitY=0.63;exitDx=0;exitDy=0;exitPerimeter=0;" edge="1" parent="qm9S37Klu7uk364gJ0n9-106" source="qm9S37Klu7uk364gJ0n9-126" target="N9iGH-wq7GvP8qR68Uh3-110">
          <mxGeometry relative="1" as="geometry">
            <mxPoint x="30" y="180" as="targetPoint"/>
            <mxPoint x="225.00000000000023" y="84" as="sourcePoint"/>
          </mxGeometry>
        </mxCell>
        <mxCell id="qm9S37Klu7uk364gJ0n9-103" style="rounded=0;html=1;labelBackgroundColor=#ffffff;startArrow=classic;startFill=1;startSize=4;endArrow=classic;endFill=1;endSize=4;jettySize=auto;orthogonalLoop=1;strokeColor=#4378BB;strokeWidth=2;fontSize=19;fontColor=#CC99FF;elbow=vertical;entryX=1;entryY=0.75;entryDx=0;entryDy=0;exitX=0;exitY=0.5;exitDx=0;exitDy=0;" edge="1" parent="qm9S37Klu7uk364gJ0n9-106" source="qm9S37Klu7uk364gJ0n9-92" target="N9iGH-wq7GvP8qR68Uh3-110">
          <mxGeometry relative="1" as="geometry">
            <mxPoint x="145" y="166" as="targetPoint"/>
            <mxPoint x="190.00000000000114" y="97" as="sourcePoint"/>
          </mxGeometry>
        </mxCell>
        <mxCell id="qm9S37Klu7uk364gJ0n9-104" style="rounded=0;html=1;labelBackgroundColor=#ffffff;startArrow=classic;startFill=1;startSize=4;endArrow=classic;endFill=1;endSize=4;jettySize=auto;orthogonalLoop=1;strokeColor=#4378BB;strokeWidth=2;fontSize=19;fontColor=#CC99FF;elbow=vertical;entryX=1;entryY=0.5;entryDx=0;entryDy=0;exitX=0;exitY=0.5;exitDx=0;exitDy=0;" edge="1" parent="qm9S37Klu7uk364gJ0n9-106" source="qm9S37Klu7uk364gJ0n9-98" target="N9iGH-wq7GvP8qR68Uh3-110">
          <mxGeometry relative="1" as="geometry">
            <mxPoint x="145" y="194" as="targetPoint"/>
            <mxPoint x="190.00000000000114" y="267.5" as="sourcePoint"/>
          </mxGeometry>
        </mxCell>
        <mxCell id="N9iGH-wq7GvP8qR68Uh3-115" style="edgeStyle=elbowEdgeStyle;rounded=0;html=1;labelBackgroundColor=#ffffff;startArrow=classic;startFill=1;startSize=4;endArrow=classic;endFill=1;endSize=4;jettySize=auto;orthogonalLoop=1;strokeColor=#4378BB;strokeWidth=2;fontSize=19;fontColor=#CC99FF;elbow=vertical;entryX=0;entryY=0.5;entryDx=0;entryDy=0;exitX=1;exitY=0.5;exitDx=0;exitDy=0;" parent="35" source="N9iGH-wq7GvP8qR68Uh3-107" target="N9iGH-wq7GvP8qR68Uh3-110" edge="1">
          <mxGeometry relative="1" as="geometry">
            <mxPoint x="20" y="200" as="targetPoint"/>
            <Array as="points"/>
            <mxPoint x="210" y="190" as="sourcePoint"/>
          </mxGeometry>
        </mxCell>
        <mxCell id="55" value="" style="swimlane;shadow=0;strokeColor=#4277BB;fillColor=#ffffff;fontColor=#4277BB;align=right;startSize=0;collapsible=0;strokeWidth=3;" parent="2" vertex="1">
          <mxGeometry x="553" y="596" width="516" height="164" as="geometry"/>
        </mxCell>
        <mxCell id="56" value="MONITORING &amp;amp;&lt;div&gt;LOGGING&lt;/div&gt;" style="aspect=fixed;perimeter=ellipsePerimeter;html=1;align=center;shadow=0;dashed=0;image;image=img/lib/ibm/infrastructure/monitoring_logging.svg;labelBackgroundColor=none;strokeColor=#666666;strokeWidth=3;fillColor=#C2952D;gradientColor=none;fontSize=12;fontColor=#4277BB;" parent="55" vertex="1">
          <mxGeometry x="34" y="44" width="60" height="60" as="geometry"/>
        </mxCell>
        <mxCell id="57" value="SERVICE&lt;div&gt;REGISTRATION /&amp;nbsp;&lt;/div&gt;&lt;div&gt;DISCOVERY&lt;/div&gt;" style="aspect=fixed;perimeter=ellipsePerimeter;html=1;align=center;shadow=0;dashed=0;image;image=img/lib/ibm/infrastructure/service_discovery_configuration.svg;labelBackgroundColor=none;strokeColor=#666666;strokeWidth=3;fillColor=#C2952D;gradientColor=none;fontSize=12;fontColor=#4277BB;" parent="55" vertex="1">
          <mxGeometry x="162" y="44" width="60" height="60" as="geometry"/>
        </mxCell>
        <mxCell id="58" value="LOAD&amp;nbsp;&lt;span&gt;BALANCING&lt;/span&gt;&lt;div&gt;ROUTING&lt;/div&gt;" style="aspect=fixed;perimeter=ellipsePerimeter;html=1;align=center;shadow=0;dashed=0;image;image=img/lib/ibm/infrastructure/load_balancing_routing.svg;labelBackgroundColor=none;strokeColor=#666666;strokeWidth=3;fillColor=#C2952D;gradientColor=none;fontSize=12;fontColor=#4277BB;" parent="55" vertex="1">
          <mxGeometry x="289" y="44" width="60" height="60" as="geometry"/>
        </mxCell>
        <mxCell id="59" value="INTERSERVICE&lt;div&gt;COMMUNICATION&lt;/div&gt;" style="aspect=fixed;perimeter=ellipsePerimeter;html=1;align=center;shadow=0;dashed=0;image;image=img/lib/ibm/infrastructure/interservice_communication.svg;labelBackgroundColor=none;strokeColor=#666666;strokeWidth=3;fillColor=#C2952D;gradientColor=none;fontSize=12;fontColor=#4277BB;" parent="55" vertex="1">
          <mxGeometry x="417" y="44" width="60" height="60" as="geometry"/>
        </mxCell>
        <mxCell id="60" value="INFRASTRUCTURE SERVICES" style="text;html=1;align=left;verticalAlign=top;fontColor=#4277BB;shadow=0;dashed=0;strokeColor=none;fillColor=none;labelBackgroundColor=none;fontStyle=0;fontSize=14;spacingLeft=5;" parent="55" vertex="1">
          <mxGeometry x="1" width="231" height="24" as="geometry"/>
        </mxCell>
        <mxCell id="N9iGH-wq7GvP8qR68Uh3-96" value="DESKTOP" style="aspect=fixed;perimeter=ellipsePerimeter;html=1;align=center;shadow=0;dashed=0;image;image=https://cdn.pixabay.com/photo/2017/01/10/03/54/icon-1968238_960_720.png;labelBackgroundColor=#ffffff;strokeColor=#666666;strokeWidth=3;fillColor=#C2952D;gradientColor=none;fontSize=12;fontColor=#4277BB;" parent="2" vertex="1">
          <mxGeometry x="93" y="465" width="60" height="60" as="geometry"/>
        </mxCell>
        <mxCell id="N9iGH-wq7GvP8qR68Uh3-97" value="" style="edgeStyle=orthogonalEdgeStyle;rounded=0;orthogonalLoop=1;jettySize=auto;html=1;exitX=1;exitY=0.75;exitDx=0;exitDy=0;entryX=0;entryY=0.5;entryDx=0;entryDy=0;" parent="2" source="20" target="N9iGH-wq7GvP8qR68Uh3-96" edge="1">
          <mxGeometry relative="1" as="geometry">
            <mxPoint x="50" y="363" as="sourcePoint"/>
            <mxPoint x="103" y="287" as="targetPoint"/>
            <Array as="points">
              <mxPoint x="73" y="396"/>
              <mxPoint x="73" y="495"/>
            </Array>
          </mxGeometry>
        </mxCell>
        <mxCell id="N9iGH-wq7GvP8qR68Uh3-101" value="TELEGRAM" style="shape=image;html=1;verticalAlign=top;verticalLabelPosition=bottom;labelBackgroundColor=#ffffff;imageAspect=0;aspect=fixed;image=https://cdn3.iconfinder.com/data/icons/social-media-chamfered-corner/154/telegram-128.png" parent="2" vertex="1">
          <mxGeometry x="205.5" y="359.5" width="61" height="61" as="geometry"/>
        </mxCell>
        <mxCell id="N9iGH-wq7GvP8qR68Uh3-103" value="" style="dashed=0;html=1;shape=mxgraph.aws3.permissions;fillColor=#D9A741;gradientColor=none;dashed=0;" parent="2" vertex="1">
          <mxGeometry x="180" y="313" width="30" height="35" as="geometry"/>
        </mxCell>
        <mxCell id="N9iGH-wq7GvP8qR68Uh3-99" value="" style="dashed=0;outlineConnect=0;html=1;align=center;labelPosition=center;verticalLabelPosition=bottom;verticalAlign=top;shape=mxgraph.weblogos.json_2" parent="1" vertex="1">
          <mxGeometry x="542" y="-2" width="80.4" height="25.200000000000003" as="geometry"/>
        </mxCell>
        <mxCell id="N9iGH-wq7GvP8qR68Uh3-100" value="" style="dashed=0;outlineConnect=0;html=1;align=center;labelPosition=center;verticalLabelPosition=bottom;verticalAlign=top;shape=mxgraph.weblogos.json" parent="1" vertex="1">
          <mxGeometry x="562" y="55" width="70" height="75.8" as="geometry"/>
        </mxCell>
        <mxCell id="62" value="TRANSFORMATION &amp;amp;&lt;div&gt;CONNECTIVITY&lt;/div&gt;" style="aspect=fixed;perimeter=ellipsePerimeter;html=1;align=center;shadow=0;dashed=0;image;image=img/lib/ibm/infrastructure/transformation_connectivity.svg;labelBackgroundColor=#ffffff;strokeColor=#666666;strokeWidth=3;fillColor=#C2952D;gradientColor=none;fontSize=12;fontColor=#4277BB;" parent="1" vertex="1">
          <mxGeometry x="1040" y="34.5" width="60" height="60" as="geometry"/>
        </mxCell>
        <mxCell id="64" value="CLOUD DATA&lt;div&gt;SERVICES&lt;/div&gt;" style="aspect=fixed;perimeter=ellipsePerimeter;html=1;align=center;shadow=0;dashed=0;image;image=img/lib/ibm/data/enterprise_data.svg;labelBackgroundColor=#ffffff;strokeColor=#666666;strokeWidth=3;fillColor=#C2952D;gradientColor=none;fontSize=12;fontColor=#4277BB;" parent="1" vertex="1">
          <mxGeometry x="1163" y="30" width="60" height="60" as="geometry"/>
        </mxCell>
      </root>
    </mxGraphModel>
  </diagram>
</mxfile>
